<svg width="16" height="5" viewBox="0 0 16 5" fill="none" xmlns="http://www.w3.org/2000/svg">
<path d="M2.07444 4.14007C2.94398 4.14007 3.64888 3.32522 3.64888 2.32004C3.64888 1.31486 2.94398 0.5 2.07444 0.5C1.2049 0.5 0.5 1.31486 0.5 2.32004C0.5 3.32522 1.2049 4.14007 2.07444 4.14007Z" stroke="#A1A3AB"/>
<path d="M7.58518 4.14007C8.45472 4.14007 9.15963 3.32522 9.15963 2.32004C9.15963 1.31486 8.45472 0.5 7.58518 0.5C6.71564 0.5 6.01074 1.31486 6.01074 2.32004C6.01074 3.32522 6.71564 4.14007 7.58518 4.14007Z" stroke="#A1A3AB"/>
<path d="M13.0954 4.14007C13.965 4.14007 14.6699 3.32522 14.6699 2.32004C14.6699 1.31486 13.965 0.5 13.0954 0.5C12.2259 0.5 11.521 1.31486 11.521 2.32004C11.521 3.32522 12.2259 4.14007 13.0954 4.14007Z" stroke="#A1A3AB"/>
</svg>
