<svg width="14" height="14" viewBox="0 0 14 14" fill="none" xmlns="http://www.w3.org/2000/svg">
<path d="M12.75 1.27231L9.34703 1.27232V0.4251C9.34703 0.190232 9.15684 0 8.92203 0C8.68721 0 8.49703 0.190232 8.49703 0.4251V1.27211H5.09703V0.4251C5.09703 0.190232 4.90684 0 4.67203 0C4.43721 0 4.24703 0.190232 4.24703 0.4251V1.27211H0.85C0.380587 1.27211 0 1.65279 0 2.12231V12.7498C0 13.2193 0.380587 13.6 0.85 13.6H12.75C13.2194 13.6 13.6 13.2193 13.6 12.7498V2.12231C13.6 1.65299 13.2194 1.27231 12.75 1.27231ZM12.75 12.7498H0.85V2.12231H4.24703V2.5506C4.24703 2.78545 4.43721 2.9757 4.67203 2.9757C4.90684 2.9757 5.09703 2.78545 5.09703 2.5506V2.12252H8.49703V2.55081C8.49703 2.78568 8.68721 2.97591 8.92203 2.97591C9.15684 2.97591 9.34703 2.78568 9.34703 2.55081V2.12252H12.75V12.7498ZM9.775 6.79861H10.625C10.8596 6.79861 11.05 6.60816 11.05 6.37351V5.52331C11.05 5.28865 10.8596 5.09821 10.625 5.09821H9.775C9.5404 5.09821 9.35 5.28865 9.35 5.52331V6.37351C9.35 6.60816 9.5404 6.79861 9.775 6.79861ZM9.775 10.1992H10.625C10.8596 10.1992 11.05 10.009 11.05 9.77409V8.92389C11.05 8.68924 10.8596 8.49879 10.625 8.49879H9.775C9.5404 8.49879 9.35 8.68924 9.35 8.92389V9.77409C9.35 10.0092 9.5404 10.1992 9.775 10.1992ZM7.225 8.49879H6.375C6.1404 8.49879 5.95 8.68924 5.95 8.92389V9.77409C5.95 10.009 6.1404 10.1992 6.375 10.1992H7.225C7.4596 10.1992 7.65 10.009 7.65 9.77409V8.92389C7.65 8.68945 7.4596 8.49879 7.225 8.49879ZM7.225 5.09821H6.375C6.1404 5.09821 5.95 5.28865 5.95 5.52331V6.37351C5.95 6.60816 6.1404 6.79861 6.375 6.79861H7.225C7.4596 6.79861 7.65 6.60816 7.65 6.37351V5.52331C7.65 5.28844 7.4596 5.09821 7.225 5.09821ZM3.825 5.09821H2.975C2.7404 5.09821 2.55 5.28865 2.55 5.52331V6.37351C2.55 6.60816 2.7404 6.79861 2.975 6.79861H3.825C4.0596 6.79861 4.25 6.60816 4.25 6.37351V5.52331C4.25 5.28844 4.0596 5.09821 3.825 5.09821ZM3.825 8.49879H2.975C2.7404 8.49879 2.55 8.68924 2.55 8.92389V9.77409C2.55 10.009 2.7404 10.1992 2.975 10.1992H3.825C4.0596 10.1992 4.25 10.009 4.25 9.77409V8.92389C4.25 8.68945 4.0596 8.49879 3.825 8.49879Z" fill="#F8F8FB"/>
</svg>
