<svg width="20" height="12" viewBox="0 0 20 12" fill="none" xmlns="http://www.w3.org/2000/svg">
<path d="M15.3163 9.67347V11.2857H5.64286V9.67347C5.64286 9.67347 5.64286 6.44898 10.4796 6.44898C15.3163 6.44898 15.3163 9.67347 15.3163 9.67347ZM12.898 2.41837C12.898 1.94006 12.7561 1.47249 12.4904 1.0748C12.2247 0.677097 11.847 0.367129 11.4051 0.184088C10.9632 0.00104784 10.4769 -0.0468439 10.0078 0.0464693C9.53867 0.139783 9.10776 0.37011 8.76955 0.708324C8.43133 1.04654 8.20101 1.47745 8.10769 1.94657C8.01438 2.41569 8.06227 2.90194 8.24531 3.34384C8.42835 3.78574 8.73832 4.16343 9.13602 4.42917C9.53372 4.6949 10.0013 4.83674 10.4796 4.83674C11.121 4.83674 11.7361 4.58194 12.1896 4.12841C12.6432 3.67488 12.898 3.05976 12.898 2.41837ZM15.4776 6.49735C15.9182 6.90388 16.2735 7.39411 16.5226 7.93943C16.7717 8.48475 16.9097 9.07423 16.9286 9.67347V11.2857H19.3469V9.67347C19.3469 9.67347 19.3469 6.89235 15.4776 6.49735ZM14.5102 9.20191e-07C14.2666 0.000146678 14.0246 0.0382218 13.7928 0.112858C14.2644 0.78917 14.5172 1.59385 14.5172 2.41837C14.5172 3.24288 14.2644 4.04757 13.7928 4.72388C14.0246 4.79851 14.2666 4.83659 14.5102 4.83674C15.1516 4.83674 15.7667 4.58194 16.2202 4.12841C16.6738 3.67488 16.9286 3.05976 16.9286 2.41837C16.9286 1.77698 16.6738 1.16186 16.2202 0.708324C15.7667 0.254793 15.1516 9.20191e-07 14.5102 9.20191e-07ZM6.44898 4.03061H4.03061V1.61225H2.41837V4.03061H0V5.64286H2.41837V8.06123H4.03061V5.64286H6.44898V4.03061Z" fill="#FF6767"/>
</svg>
