<svg width="64" height="59" viewBox="0 0 64 59" fill="none" xmlns="http://www.w3.org/2000/svg">
<path d="M63 32.7162V17.5743C63 13.1122 61.2274 8.8329 58.0723 5.67773C54.9171 2.52256 50.6378 0.75 46.1757 0.75H17.5743C13.1122 0.75 8.8329 2.52256 5.67773 5.67773C2.52256 8.8329 0.75 13.1122 0.75 17.5743V41.1284C0.75 43.3378 1.18517 45.5255 2.03068 47.5668C2.87618 49.608 4.11545 51.4627 5.67773 53.025C8.8329 56.1801 13.1122 57.9527 17.5743 57.9527H38.6384" stroke="#A1A3AB" stroke-width="1.5" stroke-linecap="round" stroke-linejoin="round"/>
<path d="M1.625 46.1757L10.8447 35.4081C12.0555 34.2055 13.6447 33.4582 15.3431 33.2927C17.0416 33.1271 18.7452 33.5535 20.1654 34.4996C21.5857 35.4457 23.2892 35.872 24.9877 35.7065C26.6861 35.5409 28.2753 34.7936 29.4861 33.5911L37.3262 25.7509C39.579 23.4905 42.5616 22.1041 45.7419 21.8391C48.9221 21.5741 52.0931 22.4477 54.6889 24.304L63.0001 30.7309M18.4493 23.1936C19.1828 23.1892 19.9083 23.0404 20.5843 22.7556C21.2603 22.4708 21.8736 22.0556 22.3891 21.5338C22.9047 21.012 23.3124 20.3938 23.589 19.7144C23.8657 19.035 24.0058 18.3078 24.0014 17.5743C23.9969 16.8408 23.8481 16.1153 23.5633 15.4393C23.2785 14.7633 22.8634 14.1501 22.3416 13.6345C21.8197 13.1189 21.2015 12.7112 20.5221 12.4346C19.8428 12.158 19.1155 12.0179 18.382 12.0223C16.9006 12.0312 15.4834 12.6283 14.4422 13.6821C13.401 14.7359 12.8211 16.1602 12.83 17.6416C12.8389 19.123 13.436 20.5402 14.4898 21.5814C15.5436 22.6226 16.9679 23.2026 18.4493 23.1936Z" stroke="#A1A3AB" stroke-width="1.5" stroke-linecap="round" stroke-linejoin="round"/>
<path d="M54.4434 39.446V56.2703" stroke="#A1A3AB" stroke-width="1.5" stroke-miterlimit="10" stroke-linecap="round"/>
<path d="M62.1586 46.529L55.5399 39.9103C55.3965 39.765 55.2257 39.6497 55.0374 39.5709C54.8491 39.4922 54.647 39.4517 54.4429 39.4517C54.2388 39.4517 54.0368 39.4922 53.8485 39.5709C53.6601 39.6497 53.4893 39.765 53.346 39.9103L46.7273 46.529" stroke="#A1A3AB" stroke-width="1.5" stroke-linecap="round" stroke-linejoin="round"/>
</svg>
