<svg width="11" height="11" viewBox="0 0 11 11" fill="none" xmlns="http://www.w3.org/2000/svg">
<path d="M10.0595 6.19048H6.19048V10.0595C6.19048 10.2648 6.10895 10.4616 5.96383 10.6067C5.81871 10.7518 5.62189 10.8333 5.41667 10.8333C5.21144 10.8333 5.01462 10.7518 4.8695 10.6067C4.72438 10.4616 4.64286 10.2648 4.64286 10.0595V6.19048H0.773809C0.568582 6.19048 0.371761 6.10895 0.226644 5.96383C0.0815263 5.81872 0 5.62189 0 5.41667C0 5.21144 0.0815263 5.01462 0.226644 4.8695C0.371761 4.72438 0.568582 4.64286 0.773809 4.64286H4.64286V0.77381C4.64286 0.568582 4.72438 0.371761 4.8695 0.226643C5.01462 0.0815259 5.21144 0 5.41667 0C5.62189 0 5.81871 0.0815259 5.96383 0.226643C6.10895 0.371761 6.19048 0.568582 6.19048 0.77381V4.64286H10.0595C10.2648 4.64286 10.4616 4.72438 10.6067 4.8695C10.7518 5.01462 10.8333 5.21144 10.8333 5.41667C10.8333 5.62189 10.7518 5.81872 10.6067 5.96383C10.4616 6.10895 10.2648 6.19048 10.0595 6.19048Z" fill="#F24E1E"/>
</svg>
