<svg width="15" height="15" viewBox="0 0 15 15" fill="none" xmlns="http://www.w3.org/2000/svg">
<circle cx="7.5" cy="7.5" r="7.5" fill="#F24E1E"/>
<path d="M12.0595 8.19052H8.19048V12.0596C8.19048 12.2648 8.10895 12.4616 7.96383 12.6067C7.81871 12.7519 7.62189 12.8334 7.41667 12.8334C7.21144 12.8334 7.01462 12.7519 6.8695 12.6067C6.72438 12.4616 6.64286 12.2648 6.64286 12.0596V8.19052H2.77381C2.56858 8.19052 2.37176 8.109 2.22664 7.96388C2.08153 7.81876 2 7.62194 2 7.41671C2 7.21149 2.08153 7.01466 2.22664 6.86955C2.37176 6.72443 2.56858 6.6429 2.77381 6.6429H6.64286V2.77386C6.64286 2.56863 6.72438 2.37181 6.8695 2.22669C7.01462 2.08157 7.21144 2.00005 7.41667 2.00005C7.62189 2.00005 7.81871 2.08157 7.96383 2.22669C8.10895 2.37181 8.19048 2.56863 8.19048 2.77386V6.6429H12.0595C12.2648 6.6429 12.4616 6.72443 12.6067 6.86955C12.7518 7.01466 12.8333 7.21149 12.8333 7.41671C12.8333 7.62194 12.7518 7.81876 12.6067 7.96388C12.4616 8.109 12.2648 8.19052 12.0595 8.19052Z" fill="white"/>
</svg>
