<svg width="10" height="23" viewBox="0 0 10 23" fill="none" xmlns="http://www.w3.org/2000/svg">
<path d="M0 4.875C0 3.58207 0.513615 2.34209 1.42785 1.42785C2.34209 0.513615 3.58207 0 4.875 0C6.16793 0 7.40791 0.513615 8.32215 1.42785C9.23639 2.34209 9.75 3.58207 9.75 4.875C9.75 7.73744 8.13638 11.8105 7.1825 13.9669C6.78113 14.8769 5.87194 15.4375 4.875 15.4375C3.87888 15.4375 2.96969 14.8769 2.5675 13.9669C1.61281 11.8105 0 7.73663 0 4.875ZM4.875 22.75C5.62921 22.75 6.35253 22.4504 6.88584 21.9171C7.41914 21.3838 7.71875 20.6605 7.71875 19.9062C7.71875 19.152 7.41914 18.4287 6.88584 17.8954C6.35253 17.3621 5.62921 17.0625 4.875 17.0625C4.12079 17.0625 3.39747 17.3621 2.86417 17.8954C2.33086 18.4287 2.03125 19.152 2.03125 19.9062C2.03125 20.6605 2.33086 21.3838 2.86417 21.9171C3.39747 22.4504 4.12079 22.75 4.875 22.75Z" fill="white"/>
</svg>
