<svg width="28" height="27" viewBox="0 0 28 27" fill="none" xmlns="http://www.w3.org/2000/svg">
<path d="M4 0C1.79375 0 0 1.72969 0 3.85714V23.1429C0 25.2703 1.79375 27 4 27H24C26.2062 27 28 25.2703 28 23.1429V3.85714C28 1.72969 26.2062 0 24 0H4ZM22.5688 5.0625L16.0812 12.2103L23.7125 21.9375H17.7375L13.0625 16.0373L7.70625 21.9375H4.7375L11.675 14.2895L4.35625 5.0625H10.4812L14.7125 10.4565L19.6 5.0625H22.5688ZM20.2062 20.2259L9.5875 6.68371H7.81875L18.5562 20.2259H20.2H20.2062Z" fill="black"/>
</svg>
